<svg xmlns="http://www.w3.org/2000/svg" viewBox="0 0 700 220"><defs><linearGradient id="arrowRed" x1="0%" y1="0%" x2="0%" y2="100%"><stop offset="0%" style="stop-color: rgb(220, 38, 38);"></stop><stop offset="100%" style="stop-color: rgb(185, 28, 28);"></stop></linearGradient></defs><g transform="translate(15, 25)"><g stroke="#4A90D9" stroke-width="1.5" fill="none"><line x1="10" y1="8" x2="10" y2="118"></line><line x1="10" y1="8" x2="28" y2="22"></line><line x1="10" y1="30" x2="28" y2="22"></line><line x1="10" y1="30" x2="28" y2="45"></line><line x1="10" y1="55" x2="28" y2="45"></line><line x1="10" y1="55" x2="28" y2="70"></line><line x1="10" y1="80" x2="28" y2="70"></line><line x1="10" y1="80" x2="28" y2="95"></line><line x1="10" y1="105" x2="28" y2="95"></line><line x1="10" y1="105" x2="28" y2="110"></line><line x1="10" y1="118" x2="28" y2="110"></line><line x1="10" y1="118" x2="28" y2="125"></line><line x1="28" y1="125" x2="45" y2="110"></line><line x1="28" y1="110" x2="45" y2="110"></line><line x1="28" y1="110" x2="45" y2="95"></line><line x1="28" y1="95" x2="45" y2="95"></line><line x1="28" y1="95" x2="45" y2="70"></line><line x1="28" y1="70" x2="45" y2="70"></line><line x1="28" y1="70" x2="45" y2="45"></line><line x1="28" y1="45" x2="45" y2="45"></line><line x1="28" y1="45" x2="45" y2="25"></line><line x1="28" y1="22" x2="45" y2="25"></line><line x1="45" y1="25" x2="62" y2="12"></line><line x1="45" y1="45" x2="62" y2="32"></line><line x1="62" y1="12" x2="62" y2="32"></line><line x1="62" y1="12" x2="80" y2="25"></line><line x1="62" y1="32" x2="80" y2="25"></line><line x1="62" y1="32" x2="80" y2="45"></line><line x1="80" y1="25" x2="95" y2="45"></line><line x1="80" y1="45" x2="95" y2="45"></line><line x1="80" y1="45" x2="95" y2="70"></line><line x1="95" y1="45" x2="95" y2="70"></line><line x1="95" y1="70" x2="95" y2="95"></line><line x1="95" y1="95" x2="95" y2="110"></line><line x1="95" y1="110" x2="95" y2="125"></line><line x1="45" y1="70" x2="62" y2="55"></line><line x1="45" y1="95" x2="62" y2="78"></line><line x1="62" y1="55" x2="80" y2="45"></line><line x1="62" y1="78" x2="80" y2="68"></line><line x1="95" y1="70" x2="112" y2="80"></line><line x1="95" y1="95" x2="112" y2="80"></line><line x1="95" y1="95" x2="112" y2="100"></line><line x1="95" y1="110" x2="112" y2="100"></line><line x1="95" y1="110" x2="112" y2="115"></line><line x1="95" y1="125" x2="112" y2="115"></line><line x1="95" y1="125" x2="112" y2="125"></line><line x1="112" y1="125" x2="130" y2="110"></line><line x1="112" y1="115" x2="130" y2="110"></line><line x1="112" y1="115" x2="130" y2="95"></line><line x1="112" y1="100" x2="130" y2="95"></line><line x1="112" y1="100" x2="130" y2="70"></line><line x1="112" y1="80" x2="130" y2="70"></line><line x1="112" y1="80" x2="130" y2="45"></line><line x1="130" y1="45" x2="130" y2="70"></line><line x1="130" y1="45" x2="148" y2="25"></line><line x1="130" y1="45" x2="148" y2="45"></line><line x1="148" y1="25" x2="148" y2="45"></line><line x1="148" y1="25" x2="165" y2="12"></line><line x1="148" y1="45" x2="165" y2="32"></line><line x1="165" y1="12" x2="165" y2="32"></line><line x1="165" y1="12" x2="182" y2="25"></line><line x1="165" y1="32" x2="182" y2="25"></line><line x1="165" y1="32" x2="182" y2="45"></line><line x1="182" y1="25" x2="198" y2="45"></line><line x1="182" y1="45" x2="198" y2="45"></line><line x1="182" y1="45" x2="198" y2="70"></line><line x1="198" y1="45" x2="198" y2="70"></line><line x1="198" y1="70" x2="198" y2="95"></line><line x1="198" y1="95" x2="198" y2="110"></line><line x1="198" y1="110" x2="198" y2="125"></line><line x1="130" y1="70" x2="148" y2="55"></line><line x1="130" y1="95" x2="148" y2="78"></line><line x1="148" y1="55" x2="165" y2="45"></line><line x1="148" y1="78" x2="165" y2="68"></line><line x1="182" y1="45" x2="198" y2="70"></line><line x1="198" y1="70" x2="182" y2="78"></line><line x1="198" y1="95" x2="182" y2="78"></line><line x1="198" y1="95" x2="182" y2="100"></line><line x1="198" y1="110" x2="182" y2="100"></line><line x1="198" y1="110" x2="182" y2="118"></line><line x1="198" y1="125" x2="182" y2="118"></line></g><g fill="#4A90D9"><circle cx="10" cy="8" r="5"></circle><circle cx="10" cy="55" r="4.5"></circle><circle cx="10" cy="105" r="4.5"></circle><circle cx="10" cy="118" r="5"></circle><circle cx="28" cy="45" r="4"></circle><circle cx="45" cy="25" r="4.5"></circle><circle cx="62" cy="12" r="5"></circle><circle cx="80" cy="25" r="4.5"></circle><circle cx="95" cy="45" r="4"></circle><circle cx="95" cy="95" r="4.5"></circle><circle cx="95" cy="125" r="5"></circle><circle cx="112" cy="80" r="4"></circle><circle cx="112" cy="125" r="4.5"></circle><circle cx="130" cy="45" r="4.5"></circle><circle cx="148" cy="25" r="4.5"></circle><circle cx="165" cy="12" r="5"></circle><circle cx="182" cy="25" r="4.5"></circle><circle cx="198" cy="45" r="4"></circle><circle cx="198" cy="95" r="4.5"></circle><circle cx="198" cy="125" r="5"></circle></g><g fill="#9CA3AF"><circle cx="10" cy="30" r="4"></circle><circle cx="10" cy="80" r="4"></circle><circle cx="28" cy="22" r="3.5"></circle><circle cx="28" cy="70" r="3.5"></circle><circle cx="28" cy="95" r="3.5"></circle><circle cx="28" cy="110" r="3.5"></circle><circle cx="28" cy="125" r="4"></circle><circle cx="45" cy="45" r="3.5"></circle><circle cx="45" cy="70" r="3.5"></circle><circle cx="45" cy="95" r="3.5"></circle><circle cx="45" cy="110" r="3.5"></circle><circle cx="62" cy="32" r="3.5"></circle><circle cx="62" cy="55" r="3"></circle><circle cx="62" cy="78" r="3"></circle><circle cx="80" cy="45" r="3.5"></circle><circle cx="80" cy="68" r="3"></circle><circle cx="95" cy="70" r="3.5"></circle><circle cx="95" cy="110" r="3.5"></circle><circle cx="112" cy="100" r="3.5"></circle><circle cx="112" cy="115" r="3.5"></circle><circle cx="130" cy="70" r="3.5"></circle><circle cx="130" cy="95" r="3.5"></circle><circle cx="130" cy="110" r="3.5"></circle><circle cx="148" cy="45" r="3.5"></circle><circle cx="148" cy="55" r="3"></circle><circle cx="148" cy="78" r="3"></circle><circle cx="165" cy="32" r="3.5"></circle><circle cx="165" cy="45" r="3"></circle><circle cx="165" cy="68" r="3"></circle><circle cx="182" cy="45" r="3.5"></circle><circle cx="182" cy="78" r="3.5"></circle><circle cx="182" cy="100" r="3.5"></circle><circle cx="182" cy="118" r="3.5"></circle><circle cx="198" cy="70" r="3.5"></circle><circle cx="198" cy="110" r="3.5"></circle></g></g><g transform="translate(230, 35)"><text x="0" y="60" font-family="Arial, Helvetica, sans-serif" font-size="68" font-weight="700" fill="#1E3A5F">mobi</text><text x="0" y="115" font-family="Arial, Helvetica, sans-serif" font-size="40" font-weight="400" fill="#7C8A9A" letter-spacing="8">SOLUTIONS</text><text x="355" y="115" font-family="Arial, Helvetica, sans-serif" font-size="30" font-weight="300" fill="#9CA3AF" font-style="italic">inc.</text></g><line x1="230" y1="172" x2="410" y2="172" stroke="#CCCCCC" stroke-width="1"></line><g transform="translate(425, 158)"><text x="0" y="17" font-family="Arial, Helvetica, sans-serif" font-size="14" font-weight="400" fill="#9CA3AF" letter-spacing="2">POWERED BY</text><line x1="115" y1="0" x2="115" y2="24" stroke="#CCCCCC" stroke-width="1"></line><text x="130" y="19" font-family="Arial, Helvetica, sans-serif" font-size="28" font-weight="400" fill="url(#arrowRed)">A</text><text x="150" y="19" font-family="Arial, Helvetica, sans-serif" font-size="28" font-weight="400" fill="#374151">rrowhead</text></g></svg>
